<svg width="41" height="77" viewBox="0 0 41 77" fill="none" xmlns="http://www.w3.org/2000/svg">
<path d="M20.4143 0.666145L39.4421 12.7749V64.1011L20.4143 76.2098L1.38658 64.1011V12.7749L20.4143 0.666145Z" fill="black" stroke="black" stroke-width="1.124"/>
<g clip-path="url(#clip0_102_166)">
<path d="M28.3014 36.1794V30.8001L25.2523 31.1104L25.2699 36.4897L21.6569 37.0414L21.6393 13.869L25.2523 13.3001L25.2699 27.7483L28.3014 27.1794L28.2837 13.007L31.8968 12.438L31.9144 35.6104L28.3014 36.1794Z" fill="#EAE9E0"/>
<path d="M19.1542 14.0933L8.91437 15.9726V38.2139L12.7213 37.7829L12.4393 32.7657L16.2285 32.0415L16.299 37.5071L19.6829 37.1967L19.1542 14.0933ZM15.9642 28.714L12.4569 29.2829L12.2983 20.076L15.9642 19.3002V28.714Z" fill="#EAE9E0"/>
<path d="M15.5764 63.5759V58.1965L12.545 58.5069V63.8862L8.93199 64.4379L8.91437 41.2655L12.5274 40.7138L12.545 55.1448L15.5764 54.5759L15.5588 40.4034L19.1718 39.8345L19.1895 63.0069L15.5764 63.5759Z" fill="#EAE9E0"/>
<path d="M31.3857 38.3518L21.1458 40.2311V62.4725L24.9527 62.0415L24.6707 57.0242L28.46 56.3001L28.5305 61.7656L31.9144 61.4553L31.3857 38.3518ZM28.178 52.9897L24.6707 53.5587L24.5297 43.3001L28.1956 42.5242V52.9897H28.178Z" fill="#EAE9E0"/>
</g>
<defs>
<clipPath id="clip0_102_166">
<rect width="23" height="52" fill="white" transform="translate(8.91437 12.438)"/>
</clipPath>
</defs>
</svg>
