<svg width="533" height="436" viewBox="0 0 533 436" fill="none" xmlns="http://www.w3.org/2000/svg">
<path d="M528.22 136.037L528.239 135.96L528.254 135.882C532.25 115.608 516.215 96.7429 495.565 99.8861L495.555 99.8876L495.545 99.8892L28.3298 173.521L28.29 173.527L28.2502 173.534C10.9799 176.627 -0.305804 195.111 5.80922 211.819L65.0712 396.719L65.0912 396.781L65.1133 396.843C69.1789 408.188 80.3217 416.465 92.6426 416.465H438.63C452.046 416.465 463.248 407.03 466.284 393.726C466.286 393.718 466.288 393.71 466.29 393.702L528.22 136.037Z" fill="#D9D9D9" stroke="#7D7E34" stroke-width="7.72823"/>
<path d="M96.8171 407.396H434.496C445.723 407.396 455.223 399.623 457.814 388.396L518.268 140.534C521.723 123.262 507.905 107.716 490.632 110.307L34.6358 181.125C19.9541 183.716 10.4542 199.261 15.6359 213.079L73.4991 390.987C76.9536 400.487 86.4536 407.396 96.8171 407.396Z" fill="#6EA5A0"/>
<path d="M88.663 377.337C94.8703 377.337 105.775 367.942 111.647 359.386C108.627 363.916 107.285 365.929 106.782 368.781C106.11 372.975 112.15 377.337 117.351 377.337C124.732 377.337 132.282 366.265 141.509 356.702C140.67 355.025 139.663 354.857 138.321 356.199C132.449 362.071 125.403 368.446 121.041 370.794C118.022 372.472 117.351 371.298 117.854 368.781C119.867 356.702 145.703 328.853 151.239 324.659C148.89 321.807 140.334 318.62 136.308 322.982L135.134 324.491C133.959 320.968 125.907 317.949 123.222 317.949C111.311 317.949 81.1136 352.508 78.5971 367.439C77.7583 372.472 84.4689 377.337 88.663 377.337ZM90.1729 370.794C88.9985 370.794 89.1663 370.123 89.334 369.452C90.6761 361.735 115.841 331.873 122.048 327.847C125.571 325.33 132.449 325.834 131.946 328.35C117.351 346.133 95.2058 370.794 90.1729 370.794Z" fill="#2D2D2B"/>
<path d="M171.697 377.337C182.434 377.337 186.628 366.265 195.855 356.702C195.016 355.025 194.01 354.857 192.668 356.199C186.628 361.903 176.73 370.794 173.878 370.794C172.536 370.794 171.865 369.956 172.2 367.942C174.214 357.038 199.043 335.899 199.043 328.686C199.043 324.156 191.997 318.452 188.138 318.452C184.279 318.452 171.865 331.873 160.96 342.778C167.503 334.39 173.207 327.343 174.549 324.156C175.891 320.801 170.691 317.11 164.987 319.458C161.631 330.028 131.098 362.071 131.098 367.942C130.93 372.472 136.299 376.498 140.996 376.498C140.996 369.284 181.092 324.491 188.306 324.491C189.145 324.491 189.48 324.827 189.145 325.834C188.641 329.524 159.283 354.521 159.283 365.426C159.283 369.62 166.496 377.337 171.697 377.337Z" fill="#2D2D2B"/>
<path d="M169.911 435.048C189.707 435.048 215.543 378.847 260.168 322.143C259.497 318.116 250.27 311.574 246.243 316.606C238.862 331.37 211.684 367.942 199.94 367.942C199.102 367.942 199.102 367.607 199.102 366.6C199.102 359.219 229.97 331.538 229.97 323.653C229.97 319.458 225.273 314.426 219.233 315.768C217.22 326.672 188.532 353.515 188.532 363.748C188.532 368.278 197.256 375.66 201.115 375.66C203.631 375.66 211.852 369.62 218.73 362.574C213.697 369.452 208.664 376.498 203.631 383.209C202.96 382.538 201.618 382.202 199.605 382.202C175.615 384.383 156.154 405.018 152.631 415.923C149.779 424.814 163.536 435.048 169.911 435.048ZM166.723 425.15C164.71 425.15 165.046 422.466 165.381 421.291C168.233 411.058 185.848 389.584 200.947 386.564C183.667 409.548 172.427 425.15 166.723 425.15Z" fill="#2D2D2B"/>
<path d="M258.734 377.002C266.954 377.002 285.912 356.031 285.912 353.682C285.912 352.173 284.066 350.998 283.228 351.669C272.155 362.742 262.257 367.439 258.398 367.439C256.05 367.439 255.211 366.265 255.211 363.916C255.211 357.876 274.001 338.416 286.247 323.485C290.441 322.982 292.287 322.646 295.474 323.149C297.152 321.807 298.662 318.452 297.488 317.949C296.145 317.445 293.964 317.278 291.28 317.278C296.984 309.896 299.333 307.044 299.333 303.689C299.333 301.34 295.642 296.475 289.267 297.314C287.757 303.689 284.905 308.386 279.201 316.271C276.517 315.768 273.665 314.929 270.645 313.755C266.787 315.6 263.599 320.968 266.787 324.324C267.458 325.162 269.639 325.33 272.323 325.162C261.921 338.08 243.132 351.334 242.796 358.715C242.461 367.942 253.533 377.002 258.734 377.002Z" fill="#2D2D2B"/>
<path d="M319.061 315.768C322.584 315.768 327.114 313.251 327.952 308.722C328.624 304.695 325.939 302.011 322.248 302.011C316.377 302.011 313.86 305.031 313.189 308.722C312.35 313.083 316.209 315.768 319.061 315.768ZM285.34 377.002C293.896 377.002 311.008 363.245 318.054 353.011L315.202 350.663C307.821 358.38 294.4 370.123 288.36 370.123C287.353 370.123 287.186 369.452 287.018 367.942C286.85 360.225 317.887 334.222 317.887 326.672C317.887 319.123 311.679 317.11 305.472 318.787C303.962 330.028 275.274 357.038 275.274 364.084C275.274 369.62 282.153 377.002 285.34 377.002Z" fill="#2D2D2B"/>
<path d="M372.077 377.337C379.459 377.337 387.008 366.265 392.88 356.702C392.041 355.025 390.867 354.689 389.692 356.199C383.485 363.748 373.755 370.794 370.903 370.794C369.561 370.794 368.89 369.956 369.225 367.942C371.238 357.038 396.067 335.396 396.067 328.686C396.067 324.491 389.021 318.452 385.163 318.452C381.975 318.452 372.413 327.847 363.521 337.074C366.541 332.88 368.89 329.357 369.225 327.008C369.561 324.156 363.857 318.452 359.998 318.452C356.811 318.452 346.409 327.847 336.847 337.241C341.544 331.37 345.403 326.672 346.409 324.156C347.751 320.801 342.551 317.11 336.847 319.458C328.291 334.893 302.958 357.709 302.958 366.265C302.958 372.472 306.649 377.505 312.856 376.498C322.754 355.528 356.139 324.491 359.998 324.491C360.837 324.491 361.172 324.827 360.837 325.834C360.334 329.524 329.465 357.038 329.465 367.271C329.465 371.801 335.504 376.498 340.873 375.156C350.603 354.186 381.472 324.491 385.33 324.491C386.169 324.491 386.505 324.827 386.169 325.834C385.666 329.524 356.139 354.857 356.139 363.748C356.139 371.298 365.199 377.337 372.077 377.337Z" fill="#2D2D2B"/>
<path d="M398.791 377.337C408.857 377.337 429.324 362.909 439.558 352.34C440.9 350.495 439.054 349.992 437.544 349.656C426.64 360.728 406.844 370.627 398.623 370.627C394.932 370.627 395.1 365.09 397.281 361.4C398.12 362.574 399.63 363.413 401.14 363.413C414.057 363.413 439.558 340.261 441.571 328.35C442.41 323.317 435.699 317.11 431.337 317.11C415.232 317.11 385.37 346.133 385.37 363.245C385.37 369.117 391.913 377.337 398.791 377.337ZM399.294 357.877C408.521 343.281 426.64 322.982 433.686 322.982C434.692 322.982 434.692 323.82 434.525 324.491C433.183 332.041 411.038 352.005 399.294 357.877Z" fill="#2D2D2B"/>
<path d="M133.056 302.844H141.816V243.606L184.784 238.6L204.809 55.4631L141.816 50.4571V12.9119H133.056V49.6227L70.8975 44.6167L91.3387 249.446L133.056 244.44V302.844Z" fill="black"/>
<path d="M241.367 311.414H251.238V263.022L319.868 260.936L294.954 71.959L251.238 59.4439V21.4816H241.367V56.5237L203.761 45.2602L176.027 265.942L241.367 263.439V311.414Z" fill="black"/>
<path d="M344.543 302.844H353.304V243.189L400.861 245.692L411.29 52.9602L353.304 50.4572V12.912H344.543V50.4572L291.146 48.3713L313.255 240.686L344.543 242.772V302.844Z" fill="black"/>
<path d="M147.057 198.023H191.645V189.994L182.183 190.568L149.494 89.6355H111.501L112.362 100.388L129.709 98.2377L103.329 187.27L91.4297 186.553V194.439H128.706V186.553L115.229 187.27L122.397 160.89H147.631L155.659 190.424L147.057 189.994V198.023ZM124.835 151.858L135.014 114.869L145.05 151.858H124.835Z" fill="#E6A311"/>
<path d="M364.571 177.986H409.159V169.957L399.696 170.531L367.008 69.5986H329.015L329.875 80.3513L347.223 78.2008L320.843 167.233L308.943 166.516V174.402H346.219V166.516L332.743 167.233L339.911 140.853H365.144L373.173 170.387L364.571 169.957V177.986ZM342.348 131.821L352.528 94.8316L362.564 131.821H342.348Z" fill="#E6A311"/>
<path d="M190.518 217.007H238.69V208.548L223.78 209.695L225.643 149.766L242.131 199.085L257.615 198.799L275.393 148.619V208.118L261.773 207.114V215.573H309.945V207.114L295.321 208.118L301.199 125.25L314.102 126.11V117.652H264.066V126.11L275.249 125.25L274.963 125.824L250.16 174.139L226.504 122.669V121.379L236.826 122.239V113.637H187.794V122.239L199.12 121.379L204.138 209.695L190.518 208.548V217.007Z" fill="#E6A311"/>
<path d="M482.108 55.2081C482.439 51.349 482.688 47.5818 482.854 43.8147C483.019 41.8851 483.102 40.0475 483.185 38.1179C483.268 37.0154 483.268 35.9128 483.268 34.9021L489.893 38.9449L491.632 40.0475L495.111 42.0689L495.194 41.977C494.117 41.0582 493.123 40.1394 492.129 39.2205C491.632 38.7611 491.053 38.3017 490.556 37.9342L489.065 36.5559C487.326 35.0858 485.669 33.6157 483.93 32.2375C484.51 31.5943 485.09 30.9511 485.669 30.2161L488.154 26.9083C489.81 24.7031 491.55 22.498 493.206 20.2009H493.123C491.053 21.9467 489.065 23.8762 487.077 25.7138C486.084 26.6327 485.09 27.5515 484.096 28.5622L483.268 29.3891C483.185 26.6327 483.019 23.8762 482.854 21.0278L482.688 18.2714C482.605 17.2607 482.605 16.3418 482.522 15.423C482.439 13.4935 482.274 11.564 482.108 9.72632H482.025C481.943 11.564 481.777 13.4935 481.694 15.423C481.611 16.3418 481.528 17.2607 481.528 18.2714L481.363 21.0278C481.197 24.06 481.032 27.0002 480.949 30.0323L479.458 29.0216L475.98 26.9083C473.743 25.5301 471.424 24.1518 469.105 22.8655C471.093 24.7031 473.081 26.5408 475.151 28.3784C476.228 29.2054 477.222 30.1242 478.216 31.043C478.878 31.5943 479.541 32.1456 480.203 32.605C478.795 34.3508 477.47 36.1884 476.062 38.0261L474.737 39.6799L471.01 44.6416L471.093 44.7335L474.075 41.977L475.648 40.5988L477.139 39.1287L480.949 35.5452C480.949 36.3722 480.949 37.291 481.032 38.1179C481.114 40.0475 481.197 41.8851 481.363 43.8147C481.528 47.5818 481.777 51.349 482.108 55.2081Z" fill="#D04D2A"/>
<path d="M455.981 105.329C456.504 99.24 456.896 93.2962 457.157 87.3524C457.419 84.308 457.549 81.4086 457.68 78.3643C457.811 76.6246 457.811 74.885 457.811 73.2903L468.264 79.669L471.009 81.4086L476.497 84.598L476.627 84.453C474.929 83.0033 473.361 81.5536 471.793 80.1039C471.009 79.3791 470.094 78.6542 469.31 78.0743L466.958 75.8998C464.214 73.5802 461.6 71.2607 458.856 69.0861C459.771 68.0713 460.685 67.0566 461.6 65.8968L465.52 60.6779C468.134 57.1986 470.878 53.7193 473.491 50.095H473.361C470.094 52.8494 466.958 55.8938 463.822 58.7932C462.254 60.2429 460.685 61.6926 459.117 63.2873L457.811 64.5921C457.68 60.2429 457.419 55.8938 457.157 51.3997L456.896 47.0506C456.765 45.4559 456.765 44.0062 456.635 42.5565C456.504 39.5122 456.243 36.4678 455.981 33.5684H455.851C455.72 36.4678 455.459 39.5122 455.328 42.5565C455.197 44.0062 455.067 45.4559 455.067 47.0506L454.805 51.3997C454.544 56.1838 454.283 60.8228 454.152 65.6069L451.8 64.0122L446.312 60.6779C442.783 58.5033 439.125 56.3287 435.466 54.2991C438.602 57.1986 441.738 60.098 445.005 62.9974C446.704 64.3021 448.272 65.7518 449.84 67.2015C450.885 68.0713 451.93 68.9412 452.976 69.666C450.754 72.4205 448.664 75.3199 446.442 78.2193L444.351 80.8287L438.471 88.6572L438.602 88.8021L443.306 84.453L445.789 82.2785L448.141 79.9589L454.152 74.3051C454.152 75.6098 454.152 77.0595 454.283 78.3643C454.413 81.4086 454.544 84.308 454.805 87.3524C455.067 93.2962 455.459 99.24 455.981 105.329Z" fill="#D04D2A"/>
<path d="M65.0633 50.0083C65.4273 45.7687 65.7003 41.63 65.8822 37.4913C66.0642 35.3715 66.1552 33.3526 66.2462 31.2328C66.3372 30.0214 66.3372 28.8101 66.3372 27.6997L73.6162 32.1413L75.5269 33.3526L79.3484 35.5734L79.4393 35.4724C78.2565 34.463 77.1647 33.4535 76.0728 32.4441C75.5269 31.9394 74.89 31.4347 74.3441 31.0309L72.7063 29.5167C70.7955 27.9016 68.9758 26.2865 67.0651 24.7724C67.702 24.0658 68.3389 23.3592 68.9758 22.5516L71.7054 18.9176C73.5252 16.495 75.4359 14.0723 77.2557 11.5487H77.1647C74.89 13.4667 72.7063 15.5865 70.5226 17.6054C69.4307 18.6148 68.3389 19.6242 67.247 20.7346L66.3372 21.6431C66.2462 18.6148 66.0642 15.5865 65.8822 12.4572L65.7003 9.42891C65.6093 8.31853 65.6093 7.30909 65.5183 6.29965C65.4273 4.17984 65.2453 2.06001 65.0633 0.0411377H64.9724C64.8814 2.06001 64.6994 4.17984 64.6084 6.29965C64.5174 7.30909 64.4264 8.31853 64.4264 9.42891L64.2445 12.4572C64.0625 15.7884 63.8805 19.0186 63.7895 22.3497L62.1517 21.2393L58.3303 18.9176C55.8736 17.4035 53.326 15.8893 50.7783 14.4761C52.962 16.495 55.1457 18.5139 57.4204 20.5327C58.6032 21.4412 59.6951 22.4507 60.7869 23.4601C61.5148 24.0658 62.2427 24.6714 62.9706 25.1761C61.4238 27.0941 59.968 29.1129 58.4213 31.1318L56.9655 32.9488L52.871 38.3998L52.962 38.5007L56.2376 35.4724L57.9663 33.9583L59.6041 32.3431L63.7895 28.4063C63.7895 29.3148 63.7895 30.3243 63.8805 31.2328C63.9715 33.3526 64.0625 35.3715 64.2445 37.4913C64.4264 41.63 64.6994 45.7687 65.0633 50.0083Z" fill="#D04D2A"/>
<path d="M36.359 105.072C36.9332 98.383 37.3639 91.853 37.651 85.323C37.9382 81.9784 38.0817 78.7931 38.2253 75.4484C38.3688 73.5372 38.3688 71.626 38.3688 69.8741L49.8535 76.8819L52.8682 78.7931L58.8977 82.297L59.0413 82.1377C57.175 80.545 55.4523 78.9523 53.7296 77.3597C52.8682 76.5633 51.8633 75.767 51.002 75.1299L48.4179 72.7409C45.4032 70.1926 42.532 67.6443 39.5173 65.2553C40.5222 64.1404 41.5271 63.0256 42.532 61.7514L46.8388 56.0178C49.71 52.1954 52.7247 48.3729 55.5959 44.3913H55.4523C51.8633 47.4173 48.4179 50.762 44.9725 53.9473C43.2498 55.54 41.5271 57.1327 39.8044 58.8846L38.3688 60.318C38.2253 55.54 37.9382 50.762 37.651 45.8247L37.3639 41.0466C37.2204 39.2947 37.2204 37.702 37.0768 36.1093C36.9332 32.7647 36.6461 29.4201 36.359 26.2347H36.2154C36.0719 29.4201 35.7848 32.7647 35.6412 36.1093C35.4977 37.702 35.3541 39.2947 35.3541 41.0466L35.067 45.8247C34.7799 51.0805 34.4927 56.1771 34.3492 61.4329L31.7651 59.6809L25.7357 56.0178C21.8596 53.6288 17.84 51.2398 13.8203 49.01C17.2657 52.1954 20.7111 55.3807 24.3001 58.5661C26.1663 59.9995 27.8891 61.5922 29.6118 63.1848C30.7602 64.1404 31.9087 65.096 33.0572 65.8924C30.6167 68.9185 28.3197 72.1038 25.8792 75.2892L23.5823 78.156L17.1222 86.7564L17.2657 86.9157L22.4338 82.1377L25.1614 79.7487L27.7455 77.2004L34.3492 70.9889C34.3492 72.4223 34.3492 74.015 34.4927 75.4484C34.6363 78.7931 34.7799 81.9784 35.067 85.323C35.3541 91.853 35.7848 98.383 36.359 105.072Z" fill="#D04D2A"/>
</svg>
