<svg width="241" height="623" viewBox="0 0 241 623" fill="none" xmlns="http://www.w3.org/2000/svg">
<path d="M136.935 60.0177C136.694 61.8826 135.804 63.1901 134.265 63.9403C132.806 64.6193 131.299 64.733 129.744 64.2812C128.265 63.8332 126.916 63.0162 125.698 61.8303C124.559 60.5732 124.106 59.0871 124.341 57.372C124.586 55.4322 125.364 54.1192 126.674 53.4328C128.062 52.6752 129.612 52.4511 131.324 52.7604C133.028 53.2195 134.448 54.115 135.583 55.447C136.719 56.779 137.17 58.3025 136.935 60.0177ZM133.668 41.7275C133.095 42.6753 132.426 43.3181 131.658 43.6557C130.891 43.9934 130.212 44.0726 129.62 43.8934C129.103 43.7178 128.71 43.3232 128.439 42.7093C128.244 42.0992 128.434 41.2827 129.01 40.26C129.833 38.799 131.02 37.5436 132.573 36.4939C134.126 35.4441 135.784 34.5496 137.547 33.8105C139.389 33.0001 141.264 32.2664 143.173 31.6095C145.082 30.9526 146.808 30.2116 148.35 29.3865C149.966 28.5651 151.289 27.6166 152.318 26.5411C153.347 25.4655 153.9 24.1414 153.977 22.5687C154.098 20.0974 153.26 18.0668 151.461 16.477C149.662 14.8872 147.435 13.6142 144.78 12.658C142.124 11.7017 139.306 11.0002 136.325 10.5535C133.419 10.1105 130.918 9.83744 128.821 9.73442C127.323 9.66083 125.709 9.65662 123.979 9.72178C122.328 9.71572 120.746 9.82568 119.234 10.0517C117.721 10.2776 116.463 10.6663 115.46 11.2176C114.461 11.694 113.937 12.419 113.89 13.3925C113.864 13.9168 114.143 14.3434 114.728 14.6724C115.387 15.005 116.084 15.3395 116.818 15.6759C117.631 15.941 118.327 16.2756 118.908 16.6794C119.567 17.0121 119.882 17.478 119.853 18.0771C119.838 18.3767 119.638 18.6296 119.252 18.8359C118.946 18.9709 118.601 19.1042 118.219 19.2356C117.838 19.3669 117.42 19.459 116.967 19.5118C116.589 19.5683 116.363 19.5947 116.288 19.5911C114.116 19.4844 112.236 18.7914 110.647 17.5122C109.058 16.2331 108.317 14.5076 108.424 12.3358C108.542 9.93927 109.424 8.03076 111.07 6.61022C112.72 5.11479 114.653 3.97109 116.869 3.1791C119.085 2.38711 121.361 1.89837 123.697 1.71287C126.112 1.45615 128.068 1.36458 129.566 1.43817C131.513 1.53383 133.715 1.79214 136.172 2.21312C138.632 2.5592 141.121 3.09435 143.638 3.81857C146.154 4.54278 148.548 5.48615 150.818 6.64866C153.167 7.73997 155.128 9.075 156.702 10.6537C158.354 12.1613 159.506 13.9445 160.155 16.0033C160.88 18.0658 160.917 20.3573 160.268 22.8778C159.723 24.8029 158.777 26.483 157.43 27.9183C156.084 29.3535 154.519 30.628 152.738 31.7416C150.96 32.7803 149.074 33.7386 147.079 34.6166C145.088 35.4196 143.173 36.1888 141.336 36.9243C139.573 37.6635 137.997 38.4119 136.608 39.1694C135.22 39.927 134.24 40.7797 133.668 41.7275Z" fill="black"/>
<path d="M128.658 241.902C129.006 237.849 129.267 233.892 129.441 229.935C129.615 227.908 129.702 225.978 129.789 223.951C129.876 222.793 129.876 221.635 129.876 220.573L136.835 224.82L138.662 225.978L142.316 228.101L142.403 228.005C141.272 227.04 140.228 226.074 139.184 225.109C138.662 224.627 138.053 224.144 137.531 223.758L135.965 222.31C134.138 220.766 132.399 219.222 130.572 217.774C131.181 217.099 131.79 216.423 132.399 215.651L135.008 212.177C136.748 209.86 138.575 207.544 140.315 205.131H140.228C138.053 206.965 135.965 208.992 133.877 210.922C132.834 211.887 131.79 212.852 130.746 213.914L129.876 214.783C129.789 211.887 129.615 208.992 129.441 206L129.267 203.105C129.18 202.043 129.18 201.078 129.093 200.113C129.006 198.086 128.832 196.059 128.658 194.129H128.571C128.484 196.059 128.31 198.086 128.223 200.113C128.136 201.078 128.049 202.043 128.049 203.105L127.875 206C127.701 209.185 127.527 212.273 127.44 215.458L125.874 214.396L122.22 212.177C119.872 210.729 117.436 209.281 115 207.93C117.088 209.86 119.176 211.791 121.35 213.721C122.481 214.589 123.525 215.555 124.569 216.52C125.265 217.099 125.961 217.678 126.657 218.16C125.178 219.994 123.786 221.924 122.307 223.855L120.916 225.592L117.001 230.804L117.088 230.9L120.22 228.005L121.872 226.557L123.438 225.013L127.44 221.249C127.44 222.117 127.44 223.083 127.527 223.951C127.614 225.978 127.701 227.908 127.875 229.935C128.049 233.892 128.31 237.849 128.658 241.902Z" fill="#D04D2A"/>
<path d="M158.946 207.307C159.378 202.277 159.702 197.368 159.917 192.458C160.133 189.943 160.241 187.548 160.349 185.034C160.457 183.597 160.457 182.16 160.457 180.842L169.092 186.111L171.359 187.548L175.892 190.183L176 190.063C174.597 188.865 173.302 187.668 172.006 186.47C171.359 185.872 170.603 185.273 169.956 184.794L168.013 182.998C165.746 181.082 163.587 179.166 161.321 177.37C162.076 176.531 162.832 175.693 163.587 174.735L166.825 170.424C168.984 167.55 171.251 164.676 173.41 161.683H173.302C170.603 163.958 168.013 166.473 165.422 168.868C164.127 170.065 162.832 171.263 161.537 172.58L160.457 173.657C160.349 170.065 160.133 166.473 159.917 162.76L159.702 159.168C159.594 157.851 159.594 156.653 159.486 155.456C159.378 152.941 159.162 150.426 158.946 148.031H158.838C158.73 150.426 158.514 152.941 158.406 155.456C158.298 156.653 158.19 157.851 158.19 159.168L157.975 162.76C157.759 166.712 157.543 170.544 157.435 174.496L155.492 173.178L150.959 170.424C148.044 168.628 145.022 166.832 142 165.155C144.59 167.55 147.181 169.945 149.879 172.34C151.283 173.418 152.578 174.615 153.873 175.813C154.737 176.531 155.6 177.25 156.463 177.849C154.629 180.124 152.902 182.519 151.067 184.914L149.34 187.069L144.483 193.536L144.59 193.655L148.476 190.063L150.527 188.267L152.47 186.351L157.435 181.681C157.435 182.758 157.435 183.956 157.543 185.034C157.651 187.548 157.759 189.943 157.975 192.458C158.19 197.368 158.514 202.277 158.946 207.307Z" fill="#6EA5A0"/>
<path d="M124.325 329L137.138 299.002C121.931 285.53 109.259 268.286 117.707 257.687C133.477 237.569 202.61 238.647 217.535 257.687C231.896 276.01 179.237 320.019 169.662 320.019C166.706 320.019 158.962 315.887 150.232 309.6L124.325 329Z" fill="white"/>
<path d="M66.1353 410.551C83.6193 411.982 100.744 419.547 114.129 427.533C103.834 428.99 93.483 432.451 83.9909 438.512C47.731 461.667 38.4822 512.054 63.48 551.2C88.4778 590.346 138.259 603.431 174.519 580.276C210.779 557.122 219.849 506.455 194.851 467.309C156.104 406.633 95.1812 392.003 66.1353 410.551Z" fill="white"/>
<path d="M161.567 482.81C161.691 485.509 161.272 487.865 160.31 489.88C159.349 491.895 158.028 493.583 156.349 494.943C154.67 496.304 152.701 497.334 150.441 498.034C148.227 498.731 145.908 499.135 143.484 499.247C143.119 499.264 142.798 499.278 142.524 499.291C142.25 499.303 141.951 499.294 141.629 499.263L137.655 510.033L129.184 508.222L130.614 491.45C132.105 491.978 133.524 492.44 134.871 492.836C136.262 493.185 137.735 493.323 139.29 493.252C140.754 493.185 142.161 492.891 143.512 492.371C144.861 491.804 146.042 491.063 147.054 490.145C148.11 489.18 148.929 488.066 149.513 486.801C150.094 485.491 150.349 484.059 150.278 482.504C150.196 480.72 149.643 479.164 148.62 477.836C147.64 476.46 146.419 475.325 144.957 474.429C143.493 473.488 141.903 472.805 140.188 472.38C138.473 471.954 136.838 471.777 135.283 471.849C133.179 471.945 131.388 472.371 129.91 473.127C128.476 473.834 127.19 474.787 126.054 475.985C124.961 477.135 123.968 478.464 123.074 479.972C122.179 481.434 121.24 482.943 120.258 484.501L124.266 461.011L128.632 467.754C130.17 467.317 131.738 467.016 133.334 466.851C134.977 466.684 136.598 466.563 138.199 466.49C140.806 466.37 143.451 466.592 146.136 467.157C148.864 467.673 151.335 468.591 153.55 469.91C155.81 471.227 157.677 472.951 159.15 475.084C160.62 477.17 161.426 479.746 161.567 482.81ZM138.744 518.783C138.786 519.698 138.617 520.508 138.237 521.212C137.857 521.917 137.334 522.514 136.669 523.003C136.05 523.49 135.333 523.844 134.518 524.064C133.705 524.331 132.887 524.483 132.064 524.521C131.195 524.561 130.251 524.467 129.232 524.238C128.214 524.01 127.258 523.665 126.366 523.201C125.474 522.738 124.713 522.131 124.082 521.381C123.498 520.629 123.183 519.75 123.136 518.743C123.092 517.783 123.26 516.95 123.64 516.245C124.02 515.54 124.543 514.944 125.208 514.455C125.871 513.92 126.609 513.519 127.422 513.253C128.234 512.987 129.052 512.834 129.876 512.797C130.836 512.752 131.826 512.845 132.845 513.073C133.861 513.255 134.794 513.602 135.642 514.113C136.489 514.578 137.205 515.21 137.792 516.008C138.376 516.76 138.694 517.685 138.744 518.783Z" fill="black"/>
<path d="M109.748 510.115C109.915 512.357 109.621 514.326 108.869 516.025C108.116 517.723 107.058 519.157 105.693 520.328C104.329 521.499 102.715 522.402 100.852 523.036C99.0276 523.668 97.1086 524.059 95.0952 524.208C94.7914 524.231 94.5254 524.251 94.2975 524.268C94.0696 524.285 93.8213 524.284 93.5525 524.266L90.4999 533.315L83.4129 532.008L84.209 518.026C85.4612 518.43 86.6522 518.781 87.782 519.079C88.947 519.336 90.1753 519.417 91.4669 519.321C92.6824 519.231 93.846 518.954 94.9574 518.489C96.066 517.987 97.0304 517.342 97.8505 516.556C98.7059 515.728 99.3614 514.782 99.8171 513.717C100.27 512.614 100.449 511.417 100.353 510.125C100.243 508.644 99.7467 507.363 98.8644 506.282C98.0173 505.161 96.9753 504.245 95.7385 503.535C94.4989 502.786 93.1609 502.255 91.7243 501.942C90.2878 501.628 88.9238 501.519 87.6322 501.615C85.8848 501.745 84.4054 502.141 83.1941 502.804C82.018 503.426 80.9713 504.248 80.0541 505.271C79.1721 506.254 78.3773 507.382 77.6698 508.657C76.9594 509.894 76.2139 511.171 75.4332 512.49L78.2166 492.86L82.0054 498.366C83.2745 497.966 84.5709 497.679 85.8948 497.504C87.2567 497.327 88.6025 497.189 89.932 497.09C92.0973 496.93 94.3027 497.052 96.5482 497.459C98.8289 497.824 100.906 498.53 102.778 499.575C104.689 500.617 106.282 502.008 107.557 503.746C108.829 505.447 109.559 507.57 109.748 510.115ZM91.6108 540.567C91.6672 541.326 91.5456 542.004 91.246 542.599C90.9463 543.194 90.5257 543.703 89.9841 544.125C89.4805 544.544 88.8924 544.855 88.2199 545.058C87.5502 545.299 86.8735 545.444 86.1897 545.495C85.468 545.549 84.6808 545.493 83.8282 545.327C82.9755 545.161 82.1728 544.896 81.4201 544.531C80.6673 544.167 80.0201 543.68 79.4783 543.071C78.9746 542.459 78.6917 541.735 78.6297 540.9C78.5705 540.102 78.6907 539.405 78.9903 538.81C79.2899 538.215 79.7105 537.706 80.2521 537.284C80.791 536.824 81.3952 536.474 82.0649 536.233C82.7345 535.992 83.4113 535.847 84.095 535.796C84.8928 535.737 85.718 535.79 86.5706 535.956C87.4204 536.084 88.2041 536.351 88.9217 536.756C89.6365 537.123 90.2471 537.631 90.7537 538.281C91.2575 538.893 91.5432 539.655 91.6108 540.567Z" fill="black"/>
<path d="M188.776 509.398C189.195 511.176 189.211 512.795 188.823 514.254C188.435 515.714 187.768 517 186.821 518.114C185.875 519.228 184.695 520.158 183.28 520.905C181.895 521.645 180.404 522.203 178.807 522.58C178.566 522.636 178.355 522.686 178.174 522.729C177.993 522.771 177.794 522.802 177.576 522.822L176.278 530.477L170.422 530.33L169.279 519.003C170.336 519.168 171.337 519.297 172.282 519.393C173.25 519.451 174.247 519.359 175.271 519.118C176.236 518.891 177.135 518.52 177.968 518.005C178.794 517.461 179.486 516.821 180.044 516.085C180.626 515.311 181.031 514.468 181.262 513.555C181.485 512.612 181.475 511.628 181.234 510.603C180.957 509.427 180.395 508.462 179.549 507.707C178.727 506.915 177.773 506.312 176.69 505.9C175.599 505.457 174.457 505.201 173.264 505.132C172.071 505.063 170.962 505.15 169.937 505.391C168.551 505.718 167.414 506.225 166.525 506.911C165.66 507.56 164.925 508.354 164.319 509.292C163.736 510.193 163.241 511.2 162.836 512.314C162.423 513.397 161.987 514.518 161.528 515.676L161.262 499.562L165.006 503.499C165.974 503.017 166.978 502.621 168.019 502.312C169.089 501.996 170.152 501.714 171.207 501.465C172.925 501.061 174.711 500.878 176.566 500.918C178.443 500.921 180.201 501.223 181.837 501.823C183.504 502.417 184.96 503.33 186.205 504.564C187.443 505.767 188.3 507.379 188.776 509.398ZM178.094 536.157C178.236 536.759 178.224 537.319 178.06 537.835C177.895 538.351 177.622 538.813 177.241 539.221C176.89 539.622 176.457 539.946 175.943 540.195C175.436 540.473 174.912 540.676 174.369 540.804C173.796 540.939 173.157 540.994 172.452 540.97C171.746 540.945 171.068 540.835 170.417 540.638C169.766 540.441 169.185 540.133 168.672 539.713C168.19 539.286 167.87 538.741 167.714 538.078C167.565 537.445 167.573 536.87 167.737 536.354C167.902 535.838 168.175 535.376 168.556 534.968C168.93 534.53 169.37 534.172 169.877 533.894C170.384 533.615 170.909 533.412 171.452 533.284C172.085 533.135 172.754 533.073 173.46 533.097C174.158 533.092 174.821 533.206 175.449 533.44C176.07 533.643 176.625 533.974 177.114 534.431C177.597 534.858 177.923 535.433 178.094 536.157Z" fill="black"/>
</svg>
