<svg width="323" height="591" viewBox="0 0 323 591" fill="none" xmlns="http://www.w3.org/2000/svg">
<path d="M197.658 395.426C198.006 391.372 198.267 387.415 198.441 383.458C198.615 381.431 198.702 379.501 198.789 377.474C198.876 376.316 198.876 375.158 198.876 374.096L205.835 378.343L207.662 379.501L211.316 381.624L211.403 381.528C210.272 380.563 209.228 379.598 208.184 378.633C207.662 378.15 207.053 377.667 206.531 377.281L204.965 375.834C203.138 374.289 201.399 372.745 199.572 371.298C200.181 370.622 200.79 369.946 201.399 369.174L204.008 365.7C205.748 363.384 207.575 361.067 209.315 358.654H209.228C207.053 360.488 204.965 362.515 202.877 364.445C201.834 365.41 200.79 366.375 199.746 367.437L198.876 368.306C198.789 365.41 198.615 362.515 198.441 359.523L198.267 356.628C198.18 355.566 198.18 354.601 198.093 353.636C198.006 351.609 197.832 349.582 197.658 347.652H197.571C197.484 349.582 197.31 351.609 197.223 353.636C197.136 354.601 197.049 355.566 197.049 356.628L196.875 359.523C196.701 362.708 196.527 365.796 196.44 368.981L194.874 367.92L191.22 365.7C188.872 364.252 186.436 362.805 184 361.453C186.088 363.384 188.176 365.314 190.35 367.244C191.481 368.113 192.525 369.078 193.569 370.043C194.265 370.622 194.961 371.201 195.657 371.684C194.178 373.517 192.786 375.448 191.307 377.378L189.916 379.115L186.001 384.327L186.088 384.423L189.22 381.528L190.872 380.08L192.438 378.536L196.44 374.772C196.44 375.641 196.44 376.606 196.527 377.474C196.614 379.501 196.701 381.431 196.875 383.458C197.049 387.415 197.31 391.372 197.658 395.426Z" fill="#D04D2A"/>
<path d="M138.658 259.057C139.006 255.004 139.267 251.047 139.441 247.09C139.615 245.063 139.702 243.133 139.789 241.106C139.876 239.948 139.876 238.79 139.876 237.728L146.835 241.975L148.662 243.133L152.316 245.256L152.403 245.16C151.272 244.194 150.228 243.229 149.184 242.264C148.662 241.782 148.053 241.299 147.531 240.913L145.965 239.465C144.138 237.921 142.399 236.377 140.572 234.929C141.181 234.254 141.79 233.578 142.399 232.806L145.008 229.332C146.748 227.015 148.575 224.699 150.315 222.286H150.228C148.053 224.12 145.965 226.147 143.877 228.077C142.834 229.042 141.79 230.007 140.746 231.069L139.876 231.937C139.789 229.042 139.615 226.147 139.441 223.155L139.267 220.259C139.18 219.198 139.18 218.233 139.093 217.268C139.006 215.241 138.832 213.214 138.658 211.284H138.571C138.484 213.214 138.31 215.241 138.223 217.268C138.136 218.233 138.049 219.198 138.049 220.259L137.875 223.155C137.701 226.34 137.527 229.428 137.44 232.613L135.874 231.551L132.22 229.332C129.872 227.884 127.436 226.436 125 225.085C127.088 227.015 129.176 228.946 131.35 230.876C132.481 231.744 133.525 232.71 134.569 233.675C135.265 234.254 135.961 234.833 136.657 235.315C135.178 237.149 133.786 239.079 132.307 241.01L130.916 242.747L127.001 247.958L127.088 248.055L130.22 245.16L131.872 243.712L133.438 242.168L137.44 238.404C137.44 239.272 137.44 240.237 137.527 241.106C137.614 243.133 137.701 245.063 137.875 247.09C138.049 251.047 138.31 255.004 138.658 259.057Z" fill="#6EA5A0"/>
<path d="M118.291 348.156C117.905 336.512 149.046 319.605 145.901 307.64C145.215 305.029 138.067 298.186 130.779 300.102C120.663 302.761 104.589 318.15 107.277 328.374C108.106 331.529 112.72 331.828 114.958 331.937C116.123 322.212 125.9 307.199 135.254 304.74C136.777 304.34 137.682 304.684 137.91 305.554C139.826 312.842 111.671 335.36 114.302 345.367C114.645 346.672 116.493 348.396 118.291 348.156ZM114.655 367.951C115.199 367.808 115.634 367.694 116.012 367.362C116.414 364.465 116.839 361.214 117.068 359.874C115.935 358.66 113.582 358.116 111.624 358.63C110.754 358.859 109.941 359.305 109.431 360.021C107.982 362.03 106.808 364.199 107.208 365.722C107.294 366.048 107.46 366.237 107.655 366.535C108.656 368.132 112.371 368.551 114.655 367.951Z" fill="black"/>
<path d="M298.372 553.509L270.231 528.447C294.767 502.524 315.934 470.063 296.326 457.917C262.683 437.29 143.401 466.63 123.913 498.435C104.935 529.073 210.029 567.464 226.65 563.558C232.108 562.275 246.163 551.904 260.452 538.075L298.372 553.509Z" fill="white"/>
<path d="M203.768 496.086C210.08 495.402 215.898 492.556 220.461 487.761L215.471 481.394C213.657 485.109 209.971 488.376 205.462 488.864C200.567 489.394 196.924 487.052 196.492 483.058C194.985 469.145 238.494 471.341 235.494 443.644C233.652 426.639 214.407 421.034 197.789 422.834C181.686 424.578 163.332 438.035 165.509 458.132C166.36 465.99 171.911 471.514 179.898 470.649C187.757 469.798 190.865 463.596 190.265 458.057C189.553 451.487 184.528 447.209 176.053 448.387C176.88 439.174 185.719 430.527 194.994 429.523C205.686 428.365 212.668 433.864 213.91 445.33C216.408 468.389 181.785 466.404 183.71 484.182C184.687 493.2 194.364 497.104 203.768 496.086ZM207.505 520.966C212.401 520.436 216.062 515.738 215.532 510.843C215.002 505.947 210.433 502.271 205.538 502.802C200.643 503.332 196.967 507.901 197.497 512.796C198.027 517.691 202.61 521.496 207.505 520.966Z" fill="black"/>
<path d="M116.067 151.412C100.945 149.97 87.8414 144.2 78.1735 138.226C87.714 137.449 97.8596 135.257 107.963 131.205C146.559 115.726 168.722 80.3312 157.377 52.0414C146.031 23.7515 105.472 13.2765 66.8764 28.7549C28.2809 44.2334 6.19841 79.8305 17.5439 108.12C35.1293 151.97 85.1503 163.811 116.067 151.412Z" fill="white"/>
</svg>
