<svg width="687" height="171" viewBox="0 0 687 171" fill="none" xmlns="http://www.w3.org/2000/svg">
<path d="M2.85787 17.0076C3.70495 20.5014 6.45027 22.2445 9.86275 21.4171C11.8127 20.9443 13.4229 16.9408 15.3728 16.468C25.7728 13.9465 44.7167 24.6661 17.0919 31.3639L14.0044 32.1124C13.1106 32.3291 13.0023 33.3017 13.6622 34.6041L19.5963 47.0155L21.3025 46.6018L20.9552 41.2664L23.9615 40.5375C36.3114 37.5432 36.449 29.5955 35.6684 25.3114C32.6838 8.74383 21.4317 2.78336 8.51305 5.91557C3.71932 7.07784 1.63651 11.9701 2.85787 17.0076ZM25.3189 66.3603C29.6251 65.3162 31.7793 61.783 30.6762 57.233C29.5927 52.7643 26.0595 50.61 21.7533 51.6541C17.3658 52.7179 15.2928 56.2314 16.3762 60.7001C17.4794 65.2501 20.9314 67.424 25.3189 66.3603Z" fill="black"/>
<path d="M530.884 164.527L544.742 129.595C511.468 117.258 478.284 97.5699 490.298 77.9926C511.007 44.5923 629.884 17.9648 661.288 37.8097C691.72 56.8357 615.478 137.841 598.994 141.715C593.582 142.987 576.508 139.931 557.692 133.882L530.884 164.527Z" fill="white"/>
<path d="M588.951 102.007C588.881 103.43 588.335 104.604 587.314 105.53C586.293 106.456 585.07 106.884 583.648 106.814C582.225 106.744 581.013 106.196 580.012 105.171C579.086 104.15 578.659 102.928 578.728 101.505C578.798 100.082 579.344 98.9076 580.365 97.9818C581.465 96.9849 582.727 96.5214 584.15 96.5913C585.573 96.6612 586.745 97.2443 587.667 98.3406C588.593 99.362 589.021 100.584 588.951 102.007ZM602.525 68.6668C601.728 69.6036 600.823 70.4599 599.809 71.2359C598.87 72.0156 597.893 72.7934 596.879 73.5693C596.879 73.5693 596.84 73.6049 596.761 73.6761C596.683 73.7473 596.644 73.7829 596.644 73.7829C595.165 74.8364 593.759 75.9684 592.423 77.179C591.091 78.3147 590.008 79.7254 589.175 81.4111C588.92 81.9991 588.666 82.5872 588.412 83.1753C588.237 83.6922 588.059 84.2465 587.88 84.8383C587.525 85.9469 587.246 87.0592 587.041 88.1752C586.91 89.2949 586.777 90.4894 586.639 91.7589L582.258 91.5437C582.563 88.4056 583.077 85.5782 583.801 83.0614C584.604 80.4733 585.665 77.9731 586.985 75.5606C587.564 74.463 588.218 73.369 588.948 72.2788C589.68 71.1137 590.488 69.9522 591.371 68.7944C591.535 68.5022 591.737 68.2119 591.977 67.9234C592.216 67.6348 592.418 67.3445 592.583 67.0523C593.312 65.962 594.009 64.7576 594.674 63.439C595.34 62.1204 595.855 60.7945 596.221 59.4612C596.397 58.9443 596.535 58.4256 596.635 57.9051C596.74 57.3096 596.805 56.7498 596.83 56.2256C596.882 55.1771 596.78 54.1962 596.525 53.2828C596.269 52.3694 595.86 51.5235 595.298 50.7452C594.17 49.2634 592.946 48.1898 591.628 47.5245C590.313 46.7842 588.944 46.3792 587.521 46.3093C584.971 46.2591 582.601 47.1186 580.413 48.8878C578.227 50.5822 576.84 52.8412 576.251 55.6649C576.711 55.4624 577.168 55.3346 577.621 55.2818C578.078 55.1541 578.493 55.0995 578.868 55.1179C580.366 55.1915 581.611 55.8157 582.604 56.9905C583.673 58.1691 584.17 59.5072 584.096 61.005C584.063 61.6791 583.88 62.3457 583.548 63.005C583.294 63.5931 582.852 64.172 582.224 64.7417C581.674 65.2401 581.056 65.5852 580.371 65.7767C579.686 65.9683 578.969 66.0457 578.22 66.0089C577.097 65.9537 576.063 65.6026 575.119 64.9557C574.175 64.3087 573.581 63.4162 573.336 62.2781C573.081 61.3647 572.898 60.4925 572.789 59.6613C572.758 58.7589 572.761 57.9333 572.798 57.1844C573.101 52.5449 575.047 48.8494 578.635 46.0979C582.299 43.3502 586.45 42.1278 591.09 42.4308C591.464 42.4492 591.838 42.4676 592.213 42.4859C592.587 42.5043 592.96 42.5602 593.331 42.6535C593.705 42.6719 594.078 42.7277 594.449 42.821C594.819 42.9143 595.19 43.0076 595.561 43.1009C599.486 44.1945 602.393 46.1391 604.283 48.9344C606.172 51.7298 607.036 54.7751 606.874 58.0703C606.782 59.9425 606.355 61.7608 605.593 63.525C604.906 65.2929 603.883 67.0069 602.525 68.6668Z" fill="black"/>
</svg>
